HIERARCHY
ROOT root
{
	OFFSET	0	13.1	24.9
	CHANNELS 6  Xposition Yposition Zposition Xrotation Yrotation Zrotation
	JOINT spine_1
	{
		OFFSET	0	9.99999	0
		CHANNELS 3  Xrotation Yrotation Zrotation
		JOINT spine_2
		{
			OFFSET	0	112	-10
			CHANNELS 3  Xrotation Yrotation Zrotation
			JOINT spine_3
			{
				OFFSET	0	206.5	19.3
				CHANNELS 3  Xrotation Yrotation Zrotation
				JOINT spine_4
				{
					OFFSET	0	110.4	14.6
					CHANNELS 3  Xrotation Yrotation Zrotation
					JOINT neck_1
					{
						OFFSET	0	71.8	-50.3
						CHANNELS 3  Xrotation Yrotation Zrotation
						JOINT neck_2
						{
							OFFSET	0	86.2	-25.8
							CHANNELS 3  Xrotation Yrotation Zrotation
							JOINT head_ee
							{
								OFFSET	0	179.8	-8.7
								CHANNELS 3  Xrotation Yrotation Zrotation
								End Site
								{
									OFFSET	1	0	0
								}
							}
						}
					}
					JOINT left_clavicle
					{
						OFFSET	-43.2	22.4	-70.8
						CHANNELS 3  Xrotation Yrotation Zrotation
						JOINT left_shoulder
						{
							OFFSET	-93.9	-5.79999	48.7
							CHANNELS 3  Xrotation Yrotation Zrotation
							JOINT left_elbow
							{
								OFFSET	-291.4	-30.8	15.2
								CHANNELS 3  Xrotation Yrotation Zrotation
								JOINT left_lowarm_twist
								{
									OFFSET	-110.7	-3.89999	13.6
									CHANNELS 3  Xrotation Yrotation Zrotation
									JOINT left_hand
									{
										OFFSET	-110.7	-3.89999	13.6
										CHANNELS 3  Xrotation Yrotation Zrotation
										JOINT left_ee
										{
											OFFSET	-80.8	-5.10001	12.1
											CHANNELS 3  Xrotation Yrotation Zrotation
											End Site
											{
												OFFSET	1	0	0
											}
										}
									}
								}
							}
						}
					}
					JOINT right_clavicle
					{
						OFFSET	43.2	22.4	-70.8
						CHANNELS 3  Xrotation Yrotation Zrotation
						JOINT right_shoulder
						{
							OFFSET	93.9	-5.79999	48.7
							CHANNELS 3  Xrotation Yrotation Zrotation
							JOINT right_elbow
							{
								OFFSET	291.4	-30.8	15.2
								CHANNELS 3  Xrotation Yrotation Zrotation
								JOINT right_lowarm_twist
								{
									OFFSET	110.7	-3.89999	13.6
									CHANNELS 3  Xrotation Yrotation Zrotation
									JOINT right_hand
									{
										OFFSET	110.7	-3.89999	13.6
										CHANNELS 3  Xrotation Yrotation Zrotation
										JOINT right_ee
										{
											OFFSET	80.8	-5.10001	12.1
											CHANNELS 3  Xrotation Yrotation Zrotation
											End Site
											{
												OFFSET	1	0	0
											}
										}
									}
								}
							}
						}
					}
				}
			}
		}
	}
	JOINT left_hip
	{
		OFFSET	-82.8	-127.5	0.300001
		CHANNELS 3  Xrotation Yrotation Zrotation
		JOINT left_knee
		{
			OFFSET	-28.2	-396.7	2.2
			CHANNELS 3  Xrotation Yrotation Zrotation
			JOINT left_ankle
			{
				OFFSET	-11.7	-411.3	35.4
				CHANNELS 3  Xrotation Yrotation Zrotation
				JOINT left_toes
				{
					OFFSET	0	-60	-88.6
					CHANNELS 3  Xrotation Yrotation Zrotation
					JOINT left_foot_ee
					{
						OFFSET	-22.5	-16.5	-42.2
						CHANNELS 3  Xrotation Yrotation Zrotation
						End Site
						{
							OFFSET	1	0	0
						}
					}
				}
			}
		}
	}
	JOINT right_hip
	{
		OFFSET	82.8	-127.5	0.300001
		CHANNELS 3  Xrotation Yrotation Zrotation
		JOINT right_knee
		{
			OFFSET	28.2	-396.7	2.2
			CHANNELS 3  Xrotation Yrotation Zrotation
			JOINT right_ankle
			{
				OFFSET	11.7	-411.3	35.4
				CHANNELS 3  Xrotation Yrotation Zrotation
				JOINT right_toes
				{
					OFFSET	0	-60	-88.6
					CHANNELS 3  Xrotation Yrotation Zrotation
					JOINT right_foot_ee
					{
						OFFSET	22.5	-16.5	-42.2
						CHANNELS 3  Xrotation Yrotation Zrotation
						End Site
						{
							OFFSET	1	0	0
						}
					}
				}
			}
		}
	}
}
MOTION
Frames: 5
Frame Time: 0.02
3574.42 741.953 -1474.73 6.86805532672 67.5642875596 -8.65731038562 -0.280621 0.539402 2.73264 -0.276541 0.364492 2.76139 -0.256308 -0.236485 2.77528 -0.266998 0.204612 2.77781 -8.42822 17.1625 -1.71024 -8.60886 33.3252 2.31768 -0.0 0.0 -0.0 -7.36191 21.9735 -7.98418 9.29732 -17.9094 63.0688 2.62707 -52.4517 1.29433 -9.09361 -0.407704 1.08753 0.182466 -5.19172 -0.970047 -0.0 0.0 -0.0 12.6462 23.6591 -25.1128 -18.5395 19.5607 -68.2887 0.258782 7.30524 -0.0165198 15.0271 -0.282627 1.89328 -1.32256 -8.80062 4.87911 0.0 0.0 0.0 2.45738 28.1669 -11.4286 -33.5143 -0.106506 5.06962 41.2397 13.3014 -5.01796 -30.7553 0.0 0.0 -0.0 0.0 -0.0 1.24267 32.7685 -5.84218 -19.3289 -0.303019 -2.93666 33.9762 -13.1452 4.33432 24.7059 -0.0 -0.0 0.0 0.0 0.0 
3574.42 741.953 -1474.73 6.61330210112 66.6542378091 -8.38078871724 -0.280621 0.539402 2.73264 -0.276541 0.364492 2.76139 -0.256308 -0.236485 2.77528 -0.266998 0.204612 2.77781 -8.42822 17.1625 -1.71024 -8.60886 33.3252 2.31768 -0.0 0.0 -0.0 -7.36191 21.9735 -7.98418 9.29732 -17.9094 63.0688 2.62707 -52.4517 1.29433 -9.09361 -0.407704 1.08753 0.182466 -5.19172 -0.970047 -0.0 0.0 -0.0 12.6462 23.6591 -25.1128 -18.5395 19.5607 -68.2887 0.258782 7.30524 -0.0165198 15.0271 -0.282627 1.89328 -1.32256 -8.80062 4.87911 0.0 0.0 0.0 2.45738 28.1669 -11.4286 -33.5143 -0.106506 5.06962 41.2397 13.3014 -5.01796 -30.7553 0.0 0.0 -0.0 0.0 -0.0 1.24267 32.7685 -5.84218 -19.3289 -0.303019 -2.93666 33.9762 -13.1452 4.33432 24.7059 -0.0 -0.0 0.0 0.0 0.0 
3566.63644257 743.817 -1475.65105031 6.51766629744 66.7479530127 -8.66462601093 -0.234189 0.523886 2.72149 -0.230136 0.349716 2.74929 -0.210784 -0.246139 2.76048 -0.221365 0.192745 2.76472 -8.2257 17.6446 -1.62184 -8.39069 34.1464 2.45864 -0.0 0.0 -0.0 -7.27443 21.3382 -8.06387 7.61653 -18.1503 64.1346 2.64562 -52.6462 1.30905 -7.18318 -0.307775 0.864572 0.0941073 -4.42196 -1.2389 -0.0 0.0 -0.0 12.5918 24.2599 -24.9268 -17.5849 19.8867 -68.7725 0.353115 9.92217 -0.030652 14.8728 -0.282264 1.87358 -1.35951 -8.58643 5.21603 0.0 0.0 0.0 3.39444 27.9345 -10.9023 -33.3827 -0.100293 5.05038 40.0554 13.5559 -4.91741 -31.2302 0.0 0.0 -0.0 0.0 -0.0 -0.0438724 31.0092 -4.5908 -19.2487 -0.303821 -2.92438 35.9185 -11.7569 4.51375 23.6503 -0.0 -0.0 0.0 0.0 0.0 
3566.65532392 743.817 -1475.79859969 6.24356121961 65.6672689472 -8.36507539521 -0.234189 0.523886 2.72149 -0.230136 0.349716 2.74929 -0.210784 -0.246139 2.76048 -0.221365 0.192745 2.76472 -8.2257 17.6446 -1.62184 -8.39069 34.1464 2.45864 -0.0 0.0 -0.0 -7.27443 21.3382 -8.06387 7.61653 -18.1503 64.1346 2.64562 -52.6462 1.30905 -7.18318 -0.307775 0.864572 0.0941073 -4.42196 -1.2389 -0.0 0.0 -0.0 12.5918 24.2599 -24.9268 -17.5849 19.8867 -68.7725 0.353115 9.92217 -0.030652 14.8728 -0.282264 1.87358 -1.35951 -8.58643 5.21603 0.0 0.0 0.0 3.39444 27.9345 -10.9023 -33.3827 -0.100293 5.05038 40.0554 13.5559 -4.91741 -31.2302 0.0 0.0 -0.0 0.0 -0.0 -0.0438724 31.0092 -4.5908 -19.2487 -0.303821 -2.92438 35.9185 -11.7569 4.51375 23.6503 -0.0 -0.0 0.0 0.0 0.0 
3566.68400731 743.817 -1475.9895702 5.92321584033 64.2634990575 -8.01154043471 -0.234189 0.523886 2.72149 -0.230136 0.349716 2.74929 -0.210784 -0.246139 2.76048 -0.221365 0.192745 2.76472 -8.2257 17.6446 -1.62184 -8.39069 34.1464 2.45864 -0.0 0.0 -0.0 -7.27443 21.3382 -8.06387 7.61653 -18.1503 64.1346 2.64562 -52.6462 1.30905 -7.18318 -0.307775 0.864572 0.0941073 -4.42196 -1.2389 -0.0 0.0 -0.0 12.5918 24.2599 -24.9268 -17.5849 19.8867 -68.7725 0.353115 9.92217 -0.030652 14.8728 -0.282264 1.87358 -1.35951 -8.58643 5.21603 0.0 0.0 0.0 3.39444 27.9345 -10.9023 -33.3827 -0.100293 5.05038 40.0554 13.5559 -4.91741 -31.2302 0.0 0.0 -0.0 0.0 -0.0 -0.0438724 31.0092 -4.5908 -19.2487 -0.303821 -2.92438 35.9185 -11.7569 4.51375 23.6503 -0.0 -0.0 0.0 0.0 0.0 
